<svg width="900" height="300" viewBox="0 0 900 300" fill="none" xmlns="http://www.w3.org/2000/svg">
<rect width="900" height="300" fill="white"/>
<rect width="900" height="300" fill="url(#paint0_linear)"/>
<path d="M150 90H90V150L150 90Z" fill="url(#paint1_linear)"/>
<path d="M90 150L150 90H210L90 210V150Z" fill="url(#paint2_linear)"/>
<path d="M150 150L90 210H210L150 150Z" fill="url(#paint3_linear)"/>
<g filter="url(#filter0_d)">
<path d="M459.944 150.927L451.774 159.418V182H442.962V115.172H451.774V148.219L481.471 115.172H492.119L465.819 144.685L494.185 182H483.628L459.944 150.927ZM497.03 156.71C497.03 151.845 497.979 147.469 499.876 143.583C501.804 139.697 504.466 136.698 507.862 134.587C511.289 132.476 515.191 131.42 519.566 131.42C526.329 131.42 531.791 133.761 535.952 138.442C540.144 143.124 542.24 149.351 542.24 157.123V157.72C542.24 162.554 541.307 166.899 539.44 170.755C537.604 174.58 534.958 177.563 531.5 179.705C528.073 181.847 524.126 182.918 519.658 182.918C512.926 182.918 507.465 180.577 503.272 175.896C499.111 171.214 497.03 165.018 497.03 157.307V156.71ZM505.567 157.72C505.567 163.228 506.837 167.649 509.377 170.984C511.947 174.32 515.374 175.987 519.658 175.987C523.973 175.987 527.4 174.304 529.939 170.938C532.479 167.542 533.749 162.799 533.749 156.71C533.749 151.263 532.449 146.857 529.848 143.491C527.277 140.095 523.85 138.396 519.566 138.396C515.374 138.396 511.993 140.064 509.423 143.399C506.853 146.735 505.567 151.508 505.567 157.72ZM564.409 120.312V132.338H573.681V138.901H564.409V169.699C564.409 171.688 564.822 173.188 565.648 174.197C566.475 175.176 567.882 175.666 569.871 175.666C570.85 175.666 572.197 175.482 573.91 175.115V182C571.676 182.612 569.504 182.918 567.393 182.918C563.598 182.918 560.737 181.771 558.81 179.476C556.882 177.181 555.918 173.922 555.918 169.699V138.901H546.876V132.338H555.918V120.312H564.409ZM592.866 182H584.375V111.5H592.866V182ZM615.724 182H607.232V132.338H615.724V182ZM606.544 119.165C606.544 117.788 606.957 116.625 607.783 115.677C608.64 114.728 609.895 114.254 611.547 114.254C613.199 114.254 614.454 114.728 615.311 115.677C616.167 116.625 616.596 117.788 616.596 119.165C616.596 120.542 616.167 121.689 615.311 122.607C614.454 123.525 613.199 123.984 611.547 123.984C609.895 123.984 608.64 123.525 607.783 122.607C606.957 121.689 606.544 120.542 606.544 119.165ZM637.388 132.338L637.663 138.58C641.457 133.807 646.414 131.42 652.534 131.42C663.03 131.42 668.323 137.341 668.415 149.183V182H659.924V149.137C659.893 145.557 659.067 142.91 657.445 141.196C655.854 139.483 653.36 138.626 649.964 138.626C647.21 138.626 644.793 139.36 642.712 140.829C640.631 142.298 639.009 144.226 637.847 146.612V182H629.355V132.338H637.388Z" fill="white"/>
</g>
<defs>
<filter id="filter0_d" x="440.962" y="109.5" width="233.453" height="79.418" filterUnits="userSpaceOnUse" color-interpolation-filters="sRGB">
<feFlood flood-opacity="0" result="BackgroundImageFix"/>
<feColorMatrix in="SourceAlpha" type="matrix" values="0 0 0 0 0 0 0 0 0 0 0 0 0 0 0 0 0 0 127 0"/>
<feOffset dx="2" dy="2"/>
<feGaussianBlur stdDeviation="2"/>
<feColorMatrix type="matrix" values="0 0 0 0 0 0 0 0 0 0 0 0 0 0 0 0 0 0 0.3 0"/>
<feBlend mode="normal" in2="BackgroundImageFix" result="effect1_dropShadow"/>
<feBlend mode="normal" in="SourceGraphic" in2="effect1_dropShadow" result="shape"/>
</filter>
<linearGradient id="paint0_linear" x1="300" y1="0" x2="3.57628e-05" y2="300" gradientUnits="userSpaceOnUse">
<stop stop-color="#58CFFB"/>
<stop offset="1" stop-color="#F0FF00"/>
</linearGradient>
<linearGradient id="paint1_linear" x1="163.2" y1="76.8" x2="90" y2="150" gradientUnits="userSpaceOnUse">
<stop stop-color="#FF6FD8"/>
<stop offset="0.519337" stop-color="#3C8CE7"/>
<stop offset="1" stop-color="#00EAFF"/>
</linearGradient>
<linearGradient id="paint2_linear" x1="150" y1="90" x2="90" y2="150" gradientUnits="userSpaceOnUse">
<stop stop-color="#FB8545"/>
<stop offset="1" stop-color="#FF6FD8"/>
</linearGradient>
<linearGradient id="paint3_linear" x1="160.8" y1="139.2" x2="90" y2="210" gradientUnits="userSpaceOnUse">
<stop stop-color="#FF6FD8"/>
<stop offset="0.33602" stop-color="#3C8CE7"/>
<stop offset="1" stop-color="#00EAFF"/>
</linearGradient>
</defs>
</svg>