<?xml version="1.0" standalone="no"?>
<!DOCTYPE svg PUBLIC "-//W3C//DTD SVG 20010904//EN"
 "http://www.w3.org/TR/2001/REC-SVG-20010904/DTD/svg10.dtd">
<svg version="1.0" xmlns="http://www.w3.org/2000/svg"
 width="16.000000pt" height="16.000000pt" viewBox="0 0 16.000000 16.000000"
 preserveAspectRatio="xMidYMid meet">
<metadata>
Created by potrace 1.11, written by Peter Selinger 2001-2013
</metadata>
<g transform="translate(0.000000,16.000000) scale(0.003125,-0.003125)"
fill="#000000" stroke="none">
<path d="M0 2560 l0 -2560 2560 0 2560 0 0 2560 0 2560 -2560 0 -2560 0 0
-2560z m2887 1371 c283 -63 489 -174 678 -366 196 -199 305 -419 361 -730 25
-140 25 -413 0 -555 -107 -612 -512 -1008 -1131 -1105 -144 -23 -426 -16 -560
13 -272 59 -484 172 -671 357 -115 114 -186 214 -255 359 -89 189 -126 348
-135 571 -10 240 29 489 107 685 162 404 531 699 970 774 52 8 105 18 119 20
14 3 115 3 225 1 155 -3 221 -8 292 -24z"/>
<path d="M2400 3644 c-161 -30 -255 -63 -374 -133 -242 -143 -369 -332 -432
-647 -23 -114 -27 -515 -6 -609 75 -337 249 -565 534 -700 290 -137 716 -112
979 57 226 146 366 362 425 654 22 111 29 347 15 471 -46 392 -234 678 -543
822 -141 67 -219 83 -408 86 -91 2 -176 1 -190 -1z"/>
</g>
</svg>
