<?xml version="1.0" standalone="yes"?>

<svg version="1.1" viewBox="0.0 0.0 800.0 800.0" fill="none" stroke="none" stroke-linecap="square" stroke-miterlimit="10" xmlns="http://www.w3.org/2000/svg" xmlns:xlink="http://www.w3.org/1999/xlink"><clipPath id="p.0"><path d="m0 0l800.0 0l0 800.0l-800.0 0l0 -800.0z" clip-rule="nonzero"></path></clipPath><g clip-path="url(#p.0)"><path fill="#000000" fill-opacity="0.0" d="m0 0l800.0 0l0 800.0l-800.0 0z" fill-rule="nonzero"></path><path fill="#f44336" d="m0.51968503 400.0l0 0c0 -220.62689 178.85342 -399.48032 399.48032 -399.48032l0 0c105.94876 0 207.55817 42.087986 282.47522 117.00507c74.917114 74.91709 117.005066 176.52649 117.005066 282.47525l0 0c0 220.62689 -178.8534 399.4803 -399.4803 399.4803l0 0c-220.62689 0 -399.48032 -178.8534 -399.48032 -399.4803z" fill-rule="nonzero"></path><path fill="#ffffff" d="m206.76158 206.7604l96.9872 0l0 96.98718l-96.9872 0z" fill-rule="nonzero"></path><path fill="#ffffff" d="m351.50537 206.7604l96.98721 0l0 96.98718l-96.98721 0z" fill-rule="nonzero"></path><path fill="#ffffff" d="m496.24918 206.7604l96.98721 0l0 96.98718l-96.98721 0z" fill-rule="nonzero"></path><path fill="#ffffff" d="m496.24918 351.5061l96.98721 0l0 96.98718l-96.98721 0z" fill-rule="nonzero"></path><path fill="#ffffff" d="m496.24918 496.2518l96.98721 0l0 96.98721l-96.98721 0z" fill-rule="nonzero"></path><path fill="#ffffff" d="m351.50537 496.2518l96.98721 0l0 96.98721l-96.98721 0z" fill-rule="nonzero"></path><path fill="#ffffff" d="m206.76158 496.2518l96.9872 0l0 96.98721l-96.9872 0z" fill-rule="nonzero"></path><path fill="#ffffff" d="m206.76158 351.5061l96.9872 0l0 96.98718l-96.9872 0z" fill-rule="nonzero"></path><path fill="#ffffff" d="m351.50537 351.5061l96.98721 0l0 96.98718l-96.98721 0z" fill-rule="nonzero"></path></g></svg>

