<?xml version="1.0" standalone="yes"?>

<svg version="1.1" viewBox="0.0 0.0 800.0 800.0" fill="none" stroke="none" stroke-linecap="square" stroke-miterlimit="10" xmlns="http://www.w3.org/2000/svg" xmlns:xlink="http://www.w3.org/1999/xlink"><clipPath id="p.0"><path d="m0 0l800.0 0l0 800.0l-800.0 0l0 -800.0z" clip-rule="nonzero"></path></clipPath><g clip-path="url(#p.0)"><path fill="#000000" fill-opacity="0.0" d="m0 0l800.0 0l0 800.0l-800.0 0z" fill-rule="nonzero"></path><path fill="#ea531f" d="m-0.025281364 399.99295l0 0c0 -220.92264 179.09317 -400.0158 400.01578 -400.0158l0 0c106.09079 0 207.8364 42.1444 282.8539 117.16192c75.01752 75.01751 117.16193 176.76309 117.16193 282.85388l0 0c0 220.92264 -179.0932 400.01578 -400.01584 400.01578l0 0c-220.92262 0 -400.01578 -179.09314 -400.01578 -400.01578z" fill-rule="nonzero"></path><path fill="#ffffff" d="m168.8537 273.34656l0 0c0 -35.00438 28.376678 -63.381058 63.381073 -63.381058l0 0c16.809692 0 32.93091 6.6776276 44.81717 18.563889c11.886261 11.886246 18.563904 28.007477 18.563904 44.81717l0 0c0 35.004395 -28.376678 63.381073 -63.381073 63.381073l0 0c-35.004395 0 -63.381073 -28.376678 -63.381073 -63.381073z" fill-rule="nonzero"></path><path fill="#ffffff" d="m336.60947 273.34656l0 0c0 -35.00438 28.376648 -63.381058 63.381042 -63.381058l0 0c16.809723 0 32.93094 6.6776276 44.8172 18.563889c11.886261 11.886246 18.563873 28.007477 18.563873 44.81717l0 0c0 35.004395 -28.376678 63.381073 -63.381073 63.381073l0 0c-35.004395 0 -63.381042 -28.376678 -63.381042 -63.381073z" fill-rule="nonzero"></path><path fill="#ffffff" d="m504.3652 273.34656l0 0c0 -35.00438 28.376678 -63.381058 63.381073 -63.381058l0 0c16.809692 0 32.93091 6.6776276 44.8172 18.563889c11.88623 11.886246 18.563843 28.007477 18.563843 44.81717l0 0c0 35.004395 -28.376648 63.381073 -63.381042 63.381073l0 0c-35.004395 0 -63.381073 -28.376678 -63.381073 -63.381073z" fill-rule="nonzero"></path><path fill="#ffffff" d="m336.60947 438.29852l0 0c0 -35.004395 28.376648 -63.381042 63.381042 -63.381042l0 0c16.809723 0 32.93094 6.6776123 44.8172 18.563873c11.886261 11.886261 18.563873 28.007477 18.563873 44.81717l0 0c0 35.004395 -28.376678 63.381073 -63.381073 63.381073l0 0c-35.004395 0 -63.381042 -28.376678 -63.381042 -63.381073z" fill-rule="nonzero"></path><path fill="#ffffff" d="m336.60947 603.2505l0 0c0 -35.004395 28.376648 -63.381042 63.381042 -63.381042l0 0c16.809723 0 32.93094 6.6776123 44.8172 18.563843c11.886261 11.8862915 18.563873 28.007507 18.563873 44.8172l0 0c0 35.004395 -28.376678 63.381042 -63.381073 63.381042l0 0c-35.004395 0 -63.381042 -28.376648 -63.381042 -63.381042z" fill-rule="nonzero"></path></g></svg>

